<?xml version="1.0" encoding="UTF-8" standalone="no"?>
<!-- Created with Inkscape (http://www.inkscape.org/) -->

<svg
   width="136.55855mm"
   height="133.20694mm"
   viewBox="0 0 136.55855 133.20694"
   version="1.1"
   id="svg5"
   xml:space="preserve"
   inkscape:version="1.2.2 (b0a8486541, 2022-12-01)"
   sodipodi:docname="back-arrow.svg"
   xmlns:inkscape="http://www.inkscape.org/namespaces/inkscape"
   xmlns:sodipodi="http://sodipodi.sourceforge.net/DTD/sodipodi-0.dtd"
   xmlns="http://www.w3.org/2000/svg"
   xmlns:svg="http://www.w3.org/2000/svg"><sodipodi:namedview
     id="namedview7"
     pagecolor="#ffffff"
     bordercolor="#000000"
     borderopacity="0.25"
     inkscape:showpageshadow="2"
     inkscape:pageopacity="0.0"
     inkscape:pagecheckerboard="0"
     inkscape:deskcolor="#d1d1d1"
     inkscape:document-units="mm"
     showgrid="false"
     inkscape:zoom="0.77147868"
     inkscape:cx="230.07765"
     inkscape:cy="172.39621"
     inkscape:window-width="1920"
     inkscape:window-height="1043"
     inkscape:window-x="0"
     inkscape:window-y="0"
     inkscape:window-maximized="1"
     inkscape:current-layer="layer1" /><defs
     id="defs2" /><g
     inkscape:label="Layer 1"
     inkscape:groupmode="layer"
     id="layer1"
     transform="translate(-44.199294,-102.84834)"><path
       style="fill:#000000;stroke-width:0.264583"
       d="m 50.320812,228.77926 v -7.27604 h 44.430854 c 30.176154,0 45.085364,-0.091 46.470904,-0.28375 11.57227,-1.60955 21.07955,-10.03336 24.13063,-21.38063 0.63792,-2.37251 0.69164,-3.02818 0.79263,-9.67402 0.14934,-9.82858 -0.35092,-12.72033 -3.13794,-18.13869 -3.16128,-6.14596 -8.36612,-10.94717 -14.61674,-13.48324 -3.19955,-1.29815 -5.31696,-1.80025 -8.94668,-2.12154 -3.51369,-0.311 -74.738373,-0.3779 -74.928437,-0.0704 -0.06793,0.10992 2.01997,2.58046 4.639777,5.49011 17.216923,19.12169 21.834426,24.33586 22.266475,25.14373 1.175123,2.1973 0.766595,4.8351 -1.026544,6.62824 -1.34329,1.34329 -2.606117,1.79092 -4.637842,1.64395 -2.511641,-0.18167 0.379482,2.77819 -26.697196,-27.33191 -7.328186,-8.14917 -13.661774,-15.34599 -14.074641,-15.99294 -0.987588,-1.54753 -1.052256,-3.83153 -0.155355,-5.48691 0.327422,-0.60431 7.798594,-9.11419 16.602605,-18.91084 20.2952,-22.58345 21.3215,-23.69754 22.322443,-24.23185 0.523685,-0.27954 1.468657,-0.44648 2.56794,-0.45363 1.479143,-0.01 1.934321,0.10762 3.042708,0.78372 2.394064,1.46035 3.404299,4.65088 2.261558,7.14246 -0.279696,0.60984 -6.183942,7.39338 -13.932363,16.00728 l -13.446965,14.94896 39.404327,0.15261 c 34.94325,0.13534 39.63666,0.20122 41.45656,0.58197 7.11316,1.48819 13.11884,4.13797 18.32067,8.08332 2.3614,1.79101 6.31009,5.70628 8.25717,8.18728 4.79864,6.11452 7.99563,14.12794 8.81453,22.09409 0.5089,4.95045 0.21801,16.23606 -0.51163,19.84976 -3.49907,17.32995 -16.69891,30.77461 -33.68959,34.31445 -4.86454,1.01348 -7.15316,1.06003 -52.125171,1.06026 l -43.854687,2.2e-4 z"
       id="path910" /></g></svg>
