<?xml version="1.0" encoding="UTF-8" standalone="no"?>
<!-- Created with Inkscape (http://www.inkscape.org/) -->

<svg
   width="120.08737mm"
   height="120.06931mm"
   viewBox="0 0 120.08737 120.06931"
   version="1.1"
   id="svg5"
   xml:space="preserve"
   inkscape:version="1.2.2 (b0a8486541, 2022-12-01)"
   sodipodi:docname="back-arrow2.svg"
   xmlns:inkscape="http://www.inkscape.org/namespaces/inkscape"
   xmlns:sodipodi="http://sodipodi.sourceforge.net/DTD/sodipodi-0.dtd"
   xmlns="http://www.w3.org/2000/svg"
   xmlns:svg="http://www.w3.org/2000/svg"><sodipodi:namedview
     id="namedview7"
     pagecolor="#ffffff"
     bordercolor="#000000"
     borderopacity="0.25"
     inkscape:showpageshadow="2"
     inkscape:pageopacity="0.0"
     inkscape:pagecheckerboard="0"
     inkscape:deskcolor="#d1d1d1"
     inkscape:document-units="mm"
     showgrid="false"
     inkscape:zoom="0.77147868"
     inkscape:cx="219.70795"
     inkscape:cy="151.65682"
     inkscape:window-width="1920"
     inkscape:window-height="1043"
     inkscape:window-x="0"
     inkscape:window-y="0"
     inkscape:window-maximized="1"
     inkscape:current-layer="layer1" /><defs
     id="defs2" /><g
     inkscape:label="Layer 1"
     inkscape:groupmode="layer"
     id="layer1"
     transform="translate(-47.054615,-108.35)"><path
       style="fill:#000000;stroke-width:0.264583"
       d="m 112.47606,228.24392 c -2.61704,-0.81172 -4.93806,-3.53711 -5.25748,-6.17343 -0.0907,-0.74828 -0.12739,-5.94442 -0.0816,-11.54697 0.0795,-9.72511 0.10856,-10.24038 0.64267,-11.37708 0.69958,-1.48888 2.20555,-2.99336 3.73977,-3.73606 0.97652,-0.47272 1.74734,-0.58357 4.52434,-0.65061 5.43467,-0.1312 8.91415,-1.53383 12.36474,-4.98442 3.40325,-3.40325 4.92548,-7.08674 4.9293,-11.92787 0.002,-2.41852 -0.11469,-3.274 -0.6899,-5.06162 -1.58631,-4.92989 -5.45687,-8.99327 -10.29301,-10.80576 -2.69792,-1.01113 -5.85879,-1.22705 -16.72218,-1.14232 l -9.78959,0.0764 -0.13229,6.74688 -0.13229,6.74688 -0.78827,1.42326 c -0.90346,1.63125 -2.63265,3.07137 -4.21081,3.50687 -1.6511,0.45564 -3.8983,0.35643 -5.2181,-0.23035 -1.02992,-0.45791 -33.21398,-26.98031 -36.13568,-29.77888 -1.64565,-1.5763 -2.27176,-3.24245 -2.15809,-5.74293 0.15768,-3.46828 -0.52327,-2.7877 19.51296,-19.50236 13.56308,-11.31462 18.1126,-14.96813 19.02698,-15.27969 3.77974,-1.28789 7.5144,0.22032 9.46877,3.82386 0.44431,0.81924 0.51749,1.70416 0.63453,7.67292 l 0.13229,6.74688 13.49375,0.15145 c 11.09041,0.12448 13.89389,0.2303 15.74034,0.59416 5.72427,1.12802 9.91393,2.56813 14.77794,5.07963 14.90279,7.69497 24.96242,22.23969 27.0417,39.09828 0.50907,4.12745 0.19176,12.0013 -0.64232,15.93928 -4.25883,20.1072 -19.60391,35.45227 -39.7111,39.7111 -2.59689,0.55004 -4.11014,0.69326 -8.21072,0.77708 -2.83669,0.058 -5.38854,-0.009 -5.85663,-0.15454 z m 12.47121,-7.93829 c 15.36585,-3.20638 27.66341,-14.01281 32.51589,-28.57321 1.75415,-5.26351 2.11838,-7.65087 2.11838,-13.88494 0,-6.22191 -0.36494,-8.62339 -2.10307,-13.83921 -4.57547,-13.73012 -16.19208,-24.49971 -30.31653,-28.10601 -4.61312,-1.17783 -6.85155,-1.30352 -23.31185,-1.30899 l -15.54093,-0.005 -0.0695,-9.3815 -0.0695,-9.3815 -16.53646,13.76941 c -9.09505,7.57318 -16.69375,13.92093 -16.886,14.10611 -0.28612,0.27562 2.71382,2.8854 16.53646,14.38582 l 16.886,14.04912 0.0695,-9.38102 0.0695,-9.38102 h 14.66189 c 15.54186,0 17.29261,0.10411 20.90698,1.24323 8.05429,2.53844 14.29526,9.21144 16.33188,17.46245 0.8182,3.31478 0.81688,8.29241 -0.003,11.58911 -1.11415,4.47958 -3.74264,8.93784 -7.10391,12.04917 -4.36193,4.03757 -9.49901,6.16271 -15.76243,6.52068 l -2.84427,0.16255 v 9.39324 9.39324 l 3.9026,-0.16473 c 2.29374,-0.0968 4.99336,-0.39233 6.54844,-0.71683 z"
       id="path945" /></g></svg>
