<?xml version="1.0" encoding="UTF-8" standalone="no"?>
<!-- Created with Inkscape (http://www.inkscape.org/) -->

<svg
   width="36.89872mm"
   height="39.468266mm"
   viewBox="0 0 36.898721 39.468266"
   version="1.1"
   id="svg5"
   xml:space="preserve"
   inkscape:version="1.2.2 (b0a8486541, 2022-12-01)"
   sodipodi:docname="database-add.svg"
   xmlns:inkscape="http://www.inkscape.org/namespaces/inkscape"
   xmlns:sodipodi="http://sodipodi.sourceforge.net/DTD/sodipodi-0.dtd"
   xmlns="http://www.w3.org/2000/svg"
   xmlns:svg="http://www.w3.org/2000/svg"><sodipodi:namedview
     id="namedview7"
     pagecolor="#ffffff"
     bordercolor="#000000"
     borderopacity="0.25"
     inkscape:showpageshadow="2"
     inkscape:pageopacity="0.0"
     inkscape:pagecheckerboard="0"
     inkscape:deskcolor="#d1d1d1"
     inkscape:document-units="mm"
     showgrid="false"
     inkscape:zoom="1.0910356"
     inkscape:cx="43.536618"
     inkscape:cy="84.323554"
     inkscape:window-width="1920"
     inkscape:window-height="1011"
     inkscape:window-x="1920"
     inkscape:window-y="32"
     inkscape:window-maximized="1"
     inkscape:current-layer="layer1" /><defs
     id="defs2" /><g
     inkscape:label="Layer 1"
     inkscape:groupmode="layer"
     id="layer1"
     transform="translate(-90.390421,-142.14878)"><path
       style="fill:#000000;stroke-width:0.264583"
       d="m 101.9171,181.36727 c -5.467293,-0.7974 -9.696613,-2.96245 -10.984663,-5.6232 -0.53031,-1.09548 -0.54696,-1.52444 -0.54133,-13.94515 0.005,-11.82311 0.0431,-12.89698 0.48763,-13.8755 0.96883,-2.13263 3.8686,-3.93088 8.21718,-5.09579 2.263513,-0.60635 3.028703,-0.67885 7.164383,-0.67885 4.13695,0 4.90048,0.0724 7.16729,0.67959 4.28453,1.14768 7.11429,2.89887 8.15364,5.04587 0.51269,1.05909 0.55407,1.59494 0.55407,7.17589 v 6.03132 l -0.8599,-0.1525 c -0.47294,-0.0839 -1.48883,-0.23205 -2.25753,-0.32926 -1.30465,-0.16498 -1.36176,-0.20188 -0.85839,-0.55445 0.92397,-0.64717 1.32999,-1.78939 1.32999,-3.74151 v -1.8347 l -1.71093,0.90851 c -0.94102,0.49968 -2.87578,1.2202 -4.29948,1.60116 -3.81855,1.02178 -10.61897,1.02178 -14.437523,0 -1.4237,-0.38096 -3.35847,-1.10148 -4.29948,-1.60116 l -1.71093,-0.90851 v 2.06584 c 0,1.82899 0.0774,2.15788 0.67548,2.86861 0.90775,1.07879 3.88866,2.53274 6.401183,3.12218 1.56203,0.36646 3.09302,0.4786 6.41709,0.47005 l 4.36563,-0.0112 -1.40367,1.43982 -1.40367,1.43981 -3.22654,-0.15788 c -3.87758,-0.18973 -7.646863,-1.08082 -10.114573,-2.39118 l -1.71093,-0.90851 v 2.06584 c 0,1.80599 0.0815,2.16269 0.64786,2.83578 1.51157,1.7964 5.9029,3.37169 10.266213,3.68277 l 2.3151,0.16505 v 1.32126 1.32126 l -2.3863,-0.18014 c -3.14463,-0.23739 -7.009033,-1.23854 -9.131943,-2.36581 l -1.71093,-0.90851 v 2.06584 c 0,2.48812 0.42184,3.13995 2.8799,4.45008 2.32585,1.23967 5.202833,1.90324 9.026353,2.08191 l 3.3073,0.15456 0.96596,1.08338 0.96597,1.08339 -0.70138,0.16713 c -1.01751,0.24246 -5.73313,0.20313 -7.55813,-0.063 z m 11.06808,-26.93465 c 3.63105,-0.96163 6.50429,-2.95945 6.50429,-4.52256 0,-1.63022 -3.27583,-3.78441 -7.13291,-4.69061 -2.71842,-0.63867 -9.67317,-0.63269 -12.2661,0.0106 -4.087953,1.01414 -7.059333,2.98404 -7.059333,4.68006 0,1.95508 3.43616,3.99183 8.297393,4.91819 2.77894,0.52956 8.95467,0.31995 11.65666,-0.39563 z m 2.93241,26.85551 c -2.75162,-0.68001 -4.74407,-2.29141 -6.00816,-4.85913 -0.78079,-1.58602 -0.87041,-2.00277 -0.86528,-4.02379 0.005,-1.87515 0.12365,-2.50814 0.70649,-3.76172 1.80507,-3.88236 5.96924,-6.05446 10.06305,-5.24905 2.13514,0.42006 3.4175,1.09134 4.88146,2.5553 1.8315,1.8315 2.58683,3.71136 2.5938,6.45547 0.005,2.02102 -0.0845,2.43777 -0.86528,4.02379 -1.25821,2.55579 -3.18807,4.12079 -6.00816,4.87226 -1.59439,0.42486 -2.73912,0.42152 -4.49792,-0.0131 z m 3.08802,-4.0347 c 0.36362,-0.32907 0.48386,-0.82218 0.48386,-1.98437 v -1.5465 h 1.50052 c 2.16477,0 3.0927,-0.98809 2.03034,-2.16198 -0.32907,-0.36362 -0.82217,-0.48385 -1.98437,-0.48385 h -1.54649 v -1.50052 c 0,-2.16477 -0.98809,-3.0927 -2.16198,-2.03035 -0.36362,0.32907 -0.48386,0.82218 -0.48386,1.98438 v 1.54649 h -1.50052 c -2.16477,0 -3.0927,0.98809 -2.03034,2.16198 0.32907,0.36362 0.82217,0.48385 1.98437,0.48385 h 1.54649 v 1.50052 c 0,2.16477 0.9881,3.09271 2.16198,2.03035 z"
       id="path1638" /></g></svg>
