<?xml version="1.0" encoding="UTF-8" standalone="no"?>
<!-- Created with Inkscape (http://www.inkscape.org/) -->

<svg
   width="210mm"
   height="297mm"
   viewBox="0 0 210 297"
   version="1.1"
   id="svg5"
   xml:space="preserve"
   inkscape:version="1.2.2 (b0a8486541, 2022-12-01)"
   sodipodi:docname="logoneon.svg"
   xmlns:inkscape="http://www.inkscape.org/namespaces/inkscape"
   xmlns:sodipodi="http://sodipodi.sourceforge.net/DTD/sodipodi-0.dtd"
   xmlns="http://www.w3.org/2000/svg"
   xmlns:svg="http://www.w3.org/2000/svg"><sodipodi:namedview
     id="namedview7"
     pagecolor="#ffffff"
     bordercolor="#000000"
     borderopacity="0.25"
     inkscape:showpageshadow="2"
     inkscape:pageopacity="0.0"
     inkscape:pagecheckerboard="0"
     inkscape:deskcolor="#d1d1d1"
     inkscape:document-units="mm"
     showgrid="false"
     inkscape:zoom="0.77147868"
     inkscape:cx="397.93712"
     inkscape:cy="561.25984"
     inkscape:window-width="1920"
     inkscape:window-height="1011"
     inkscape:window-x="1920"
     inkscape:window-y="32"
     inkscape:window-maximized="1"
     inkscape:current-layer="layer1" /><defs
     id="defs2" /><g
     inkscape:label="Layer 1"
     inkscape:groupmode="layer"
     id="layer1"><path
       style="fill:#000000;stroke-width:0.264583"
       d="m 97.332518,177.22862 c -15.39411,-2.56203 -28.88481,-12.15446 -35.3874,-25.16189 -3.21324,-6.42761 -4.13042,-9.99508 -4.35349,-16.93334 -0.36705,-11.41686 1.64004,-19.15291 7.10839,-27.39835 6.03022,-9.092654 16.84783,-16.192454 29.06062,-19.073024 3.41594,-0.80571 12.189612,-0.87424 16.271882,-0.12711 19.03705,3.48411 33.22133,16.451604 37.5683,34.345494 1.85266,7.62628 1.49605,18.62635 -0.79189,24.42726 -5.19905,13.18183 -14.70962,23.07186 -26.45766,27.51329 -1.01864,0.38511 -3.34036,1.1204 -5.15937,1.63397 -3.28777,0.92826 -3.344,0.93434 -9.525,1.02987 -4.35438,0.0673 -6.852052,-0.009 -8.334382,-0.25617 z m 11.509382,-1.86533 c 2.29122,-0.0914 4.12014,-0.33701 5.95312,-0.79961 3.18138,-0.80289 4.18418,-1.44093 10.44312,-6.64444 2.39673,-1.99258 5.61142,-4.63764 7.14375,-5.87792 5.42254,-4.38904 8.7306,-7.2351 9.22776,-7.93902 1.48089,-2.09675 4.0148,-8.02106 4.6617,-10.89912 1.02698,-4.56897 1.42081,-9.82425 0.9781,-13.05156 l -0.17526,-1.2776 -1.19063,0.86135 c -0.65484,0.47375 -5.715,4.50817 -11.24479,8.96538 -11.88244,9.57769 -20.31696,16.3156 -26.32604,21.03054 -8.1441,6.39015 -15.739822,12.52025 -16.472632,13.29418 l -0.72992,0.77088 3.0559,0.74503 c 3.03128,0.73903 7.115642,1.16125 9.913322,1.02477 0.80036,-0.039 2.94349,-0.13033 4.7625,-0.20286 z m -19.082902,-2.19604 c -1.26188,-1.61284 -10.22654,-12.31876 -13.45918,-16.07344 -9.18577,-10.6692 -16.42094,-19.75053 -15.87926,-19.93109 0.44142,-0.14714 1.29191,0.72361 4.45925,4.56543 6.83762,8.29369 11.38101,13.69448 16.71016,19.86358 3.14269,3.63802 6.46153,7.52777 7.3752,8.64388 l 1.66121,2.0293 2.29474,-1.74549 c 2.0478,-1.55765 8.840882,-6.92005 13.142652,-10.37469 0.87313,-0.70119 3.6711,-2.93016 6.21771,-4.95327 23.60424,-18.75197 33.60208,-26.87902 33.60208,-27.31449 0,-0.59725 -14.1511,-17.63063 -16.10769,-19.38849 -0.76212,-0.68471 -2.18239,-1.63721 -3.15617,-2.11667 l -1.77051,-0.87175 -4.7625,0.0135 c -4.69604,0.0133 -4.82158,0.0287 -8.99583,1.10245 -6.54366,1.68323 -7.14222,1.77876 -11.112512,1.77344 -3.98685,-0.005 -7.06589,-0.64648 -15.20233,-3.16557 -5.49582,-1.70153 -9.28003,-1.80337 -13.86172,-0.37304 -3.05684,0.9543 -3.61392,1.55824 -6.76576,7.33495 -5.71155,10.46819 -6.6134,25.24873 -2.18313,35.77989 4.81412,11.44365 13.41448,19.80338 25.44523,24.73333 2.57311,1.05441 2.85021,1.10966 2.34836,0.46824 z m 8.27185,-21.23903 c -1.66807,-0.38177 -1.75667,-0.63438 -1.75667,-5.00861 0,-2.16542 0.0958,-4.03285 0.21283,-4.14985 0.44001,-0.43978 0.64302,0.57751 0.77764,3.89668 0.0803,1.97892 0.26673,3.5742 0.44254,3.78604 0.16711,0.20135 0.83301,0.44545 1.47977,0.54244 1.123262,0.16844 1.692322,0.50858 1.258732,0.75236 -0.506772,0.28492 -1.601982,0.36698 -2.414842,0.18094 z m 12.583252,0.0922 c -1.24108,-0.20726 -1.50542,-2.09893 -1.07174,-7.66947 l 0.16812,-2.1595 1.0041,-0.45278 c 1.31024,-0.59084 2.61517,-0.34798 3.82152,0.7112 1.08292,0.95082 1.20144,1.91211 0.36662,2.97343 l -0.55376,0.70399 0.95063,1.05224 c 1.44283,1.59704 1.28335,3.12073 -0.43799,4.18457 -0.89666,0.55417 -2.95485,0.8722 -4.2475,0.65632 z m 2.77982,-1.15492 c 2.99251,-0.83112 2.20018,-3.69359 -1.02238,-3.69359 -1.58876,0 -1.94214,0.40841 -1.94214,2.24455 0,1.78045 0.64178,2.09414 2.96452,1.44904 z m -1.24473,-5.24673 c 1.93235,-0.84121 2.11667,-0.98332 2.11667,-1.632 0,-0.80686 -1.38542,-1.57634 -2.83921,-1.57695 l -0.98713,-5.3e-4 0.14431,1.25678 c 0.21171,1.84371 0.37084,2.49657 0.58293,2.39155 0.10377,-0.0514 0.54587,-0.24892 0.98243,-0.43897 z m -23.283342,6.0076 c -1.82622,-1.00755 -2.81592,-2.61965 -2.81592,-4.58675 0,-2.98608 1.83619,-4.89479 4.70881,-4.89479 1.36595,0 2.94075,0.5911 3.1706,1.19009 0.25158,0.65562 0.0258,0.69122 -1.50365,0.23703 -2.99508,-0.88944 -4.99853,0.21385 -5.21914,2.87414 -0.28749,3.46666 2.02772,5.1299 5.63117,4.04542 2.02658,-0.60991 2.4188,-0.003 0.5748,0.89014 -1.25906,0.6095 -3.65205,0.7383 -4.54667,0.24472 z m 15.001372,-0.13455 c -1.19018,-0.58655 -1.67,-1.64755 -1.83522,-4.05811 -0.1531,-2.23369 0.10973,-5.10842 0.44793,-4.89939 0.11751,0.0726 0.29142,1.05649 0.38646,2.18638 0.44359,5.27358 0.69122,5.8908 2.36337,5.8908 1.78252,0 2.26928,-1.09813 2.28696,-5.15938 0.01,-2.30212 0.27393,-3.38892 0.71548,-2.94637 0.11705,0.11732 0.21282,1.72122 0.21282,3.56421 0,3.0267 -0.0583,3.44465 -0.60243,4.3197 -0.91054,1.46427 -2.40172,1.8777 -3.97537,1.10216 z m -32.993042,-4.93983 c -0.84728,-0.6449 -0.21163,-0.9486 2.52876,-1.20821 6.1459,-0.58223 12.22782,-4.60917 13.06885,-8.65312 0.13785,-0.6628 0.0285,-0.99384 -0.55923,-1.69226 l -0.7306,-0.86827 -3.58201,0.17041 c -5.08501,0.24192 -4.61529,-0.0958 -5.14277,3.69783 -0.24629,1.77124 -0.50512,3.5959 -0.5752,4.05479 -0.12401,0.81215 -0.70929,1.30329 -1.19522,1.00298 -0.45951,-0.284 -0.23709,-4.16995 0.42617,-7.44566 1.28703,-6.35642 5.7697,-17.01355 7.15635,-17.01355 0.6976,0 0.39964,1.30632 -1.04449,4.57932 -2.07505,4.7029 -3.4143,8.41595 -3.13593,8.69432 1.04606,1.04606 9.46041,-7.98294 10.41797,-11.17899 0.70532,-2.35414 -0.2418,-3.02541 -4.24636,-3.00966 -7.8771,0.031 -15.47088,4.50276 -17.37342,10.23076 -0.58253,1.75384 -0.37239,2.38316 1.00344,3.00505 1.24879,0.56446 1.77427,1.70212 0.78621,1.70212 -2.33715,0 -3.75564,-1.18582 -3.75564,-3.13961 0,-5.03268 5.50755,-10.47816 12.7,-12.55687 6.46155,-1.86748 11.09323,-1.50018 12.26671,0.97275 1.24325,2.61995 -0.18829,5.5955 -5.44706,11.32205 -2.75305,2.99793 -2.78715,3.1371 -0.76866,3.1371 0.53935,0 1.51092,0.26789 2.15904,0.59531 4.10962,2.07612 2.69671,6.98636 -3.10611,10.79455 -3.2322,2.12119 -5.58591,2.96081 -8.6758,3.09485 -2.09295,0.0908 -2.75641,0.0306 -3.175,-0.28799 z m 44.882512,-5.67454 c -0.7674,-1.19589 -0.82793,-1.45879 -0.81006,-3.51826 0.0106,-1.22419 0.10834,-2.85088 0.21715,-3.61486 0.10881,-0.76398 0.10672,-1.38906 -0.005,-1.38906 -0.11136,0 -0.71509,0.59764 -1.34163,1.32809 -2.13976,2.49465 -3.77079,3.1578 -5.22314,2.12364 l -0.72608,-0.51701 -0.82258,1.16701 c -2.21426,3.14139 -5.50168,3.65787 -6.45752,1.01452 l -0.3073,-0.84981 -1.386402,1.26709 c -3.5018,3.20045 -6.67625,4.22208 -8.40209,2.70403 -1.76385,-1.55149 -1.64586,-6.11369 0.25593,-9.89565 2.11256,-4.20114 4.51198,-5.81976 6.70593,-4.52376 2.36668,1.39803 1.91409,4.95031 -1.01531,7.96886 -1.42275,1.46605 -1.966,1.58525 -4.92727,1.08119 -0.46727,-0.0795 -0.53869,0.0772 -0.61055,1.33969 -0.12275,2.15638 0.296,2.93586 1.57719,2.93586 2.75299,0 5.88499,-2.97982 10.686012,-10.16681 1.65305,-2.47455 3.57302,-4.31394 4.72938,-4.53087 1.20936,-0.22688 2.2711,0.20232 2.2711,0.91806 0,0.68549 -0.44287,0.929 -1.55354,0.8542 -1.15356,-0.0777 -2.65138,1.44617 -4.79039,4.87368 -1.32239,2.11897 -1.45807,2.48006 -1.55121,4.12857 -0.0912,1.61394 -0.0495,1.80984 0.3908,1.83785 1.5002,0.0954 2.23307,-0.60397 4.09856,-3.9113 2.24339,-3.97729 3.49337,-5.18704 4.4112,-4.26922 0.52568,0.52569 0.35262,1.32589 -0.61532,2.84524 -1.01689,1.59618 -1.17047,2.39868 -0.45625,2.384 1.75267,-0.036 6.84294,-7.18391 8.78661,-12.3384 0.70407,-1.86714 1.24274,-3.43431 1.19705,-3.48261 -0.0457,-0.0483 -1.37309,0.27521 -2.94978,0.71891 -4.45665,1.25417 -6.10866,1.38667 -5.75363,0.46148 0.20459,-0.53316 2.59728,-1.34488 8.97236,-3.0439 0.93726,-0.24979 1.19145,-0.50843 2.22197,-2.26094 1.12383,-1.91119 1.6602,-2.43653 2.16753,-2.12298 0.37366,0.23093 0.28743,0.84078 -0.27466,1.94257 l -0.51537,1.0102 2.45422,-0.12837 c 2.90259,-0.15182 3.44319,0.0585 4.14945,1.61396 0.64253,1.41515 0.64275,2.20543 7.9e-4,2.54904 -0.74199,0.3971 -0.76197,0.38152 -1.0914,-0.85059 -0.39657,-1.48325 -0.67969,-1.78595 -1.67037,-1.78589 -0.74679,4e-5 -4.95336,0.71641 -5.07803,0.86477 -0.72115,0.85828 -4.61722,10.99709 -5.39602,14.04213 -0.27072,1.05853 -0.63121,3.08869 -0.80109,4.51146 l -0.30887,2.58686 0.7031,1.01457 c 0.75724,1.0927 0.80493,2.18981 0.10102,2.32385 -0.26973,0.0514 -0.73334,-0.39539 -1.25677,-1.21109 z M 94.608058,133.5101 c 1.12229,-0.56774 2.85675,-3.3923 2.85675,-4.65218 0,-0.76457 -0.74379,-1.52974 -1.48701,-1.52974 -0.97684,0 -2.34049,1.42934 -3.51205,3.68123 -1.4707,2.82688 -1.45107,3.17219 0.17041,2.9977 0.69123,-0.0744 1.57858,-0.29803 1.9719,-0.49701 z m 31.230462,36.92324 c 3.58451,-2.12415 7.35076,-5.29455 10.91719,-9.19001 3.49146,-3.81357 1.77444,-2.64433 -8.42838,5.7395 -3.07714,2.52854 -5.7734,4.77138 -5.99168,4.98408 -0.6161,0.60035 1.36687,-0.2678 3.50287,-1.53357 z m 20.57171,-45.82471 c -2.11814,-9.25327 -5.39114,-15.37296 -11.47738,-21.45976 -12.09812,-12.099254 -29.72003,-16.635534 -45.206782,-11.637264 -6.18765,1.99703 -15.33391,7.47981 -19.09983,11.449504 -0.94759,0.99887 -0.54971,1.08308 1.72127,0.36433 1.08176,-0.34237 2.32025,-0.4498 5.00896,-0.4345 3.29486,0.0188 3.80786,0.0921 6.61459,0.94634 7.32204,2.22841 9.55734,2.82828 12.15141,3.261 3.68529,0.61475 7.477082,0.40192 11.925682,-0.6694 7.99764,-1.92599 9.30219,-2.15229 12.43541,-2.15719 3.32629,-0.005 5.69272,0.53911 7.86666,1.80944 1.58973,0.92894 4.8354,4.453 11.97709,13.0044 3.41974,4.09477 6.25854,7.32343 6.30843,7.17481 0.0499,-0.14862 -0.0516,-0.89189 -0.22551,-1.65171 z"
       id="path193" /></g></svg>
